<svg xmlns="http://www.w3.org/2000/svg" xmlns:xlink="http://www.w3.org/1999/xlink" id="processonSvg1000" viewBox="85.75 174.5 619.5 1124.5" width="619.5" height="1124.5"><defs id="ProcessOnDefs1001"><marker id="ProcessOnMarker1015" markerUnits="userSpaceOnUse" orient="auto" markerWidth="16.23606797749979" markerHeight="10.550836550532098" viewBox="-1.0 -1.3763819204711736 16.23606797749979 10.550836550532098" refX="-1.0" refY="3.8990363547948754"><path id="ProcessOnPath1016" d="M12.0 3.8990363547948754L0.0 7.798072709589751V0.0Z" stroke="#323232" stroke-width="2.0" fill="#323232" transform="matrix(1.0,0.0,0.0,1.0,0.0,0.0)"/></marker><marker id="ProcessOnMarker1019" markerUnits="userSpaceOnUse" orient="auto" markerWidth="16.23606797749979" markerHeight="10.550836550532098" viewBox="-1.0 -1.3763819204711736 16.23606797749979 10.550836550532098" refX="-1.0" refY="3.8990363547948754"><path id="ProcessOnPath1020" d="M12.0 3.8990363547948754L0.0 7.798072709589751V0.0Z" stroke="#323232" stroke-width="2.0" fill="#323232" transform="matrix(1.0,0.0,0.0,1.0,0.0,0.0)"/></marker><marker id="ProcessOnMarker1035" markerUnits="userSpaceOnUse" orient="auto" markerWidth="16.23606797749979" markerHeight="10.550836550532098" viewBox="-1.0 -1.3763819204711736 16.23606797749979 10.550836550532098" refX="-1.0" refY="3.8990363547948754"><path id="ProcessOnPath1036" d="M12.0 3.8990363547948754L0.0 7.798072709589751V0.0Z" stroke="#323232" stroke-width="2.0" fill="#323232" transform="matrix(1.0,0.0,0.0,1.0,0.0,0.0)"/></marker><marker id="ProcessOnMarker1039" markerUnits="userSpaceOnUse" orient="auto" markerWidth="16.23606797749979" markerHeight="10.550836550532098" viewBox="-1.0 -1.3763819204711736 16.23606797749979 10.550836550532098" refX="-1.0" refY="3.8990363547948754"><path id="ProcessOnPath1040" d="M12.0 3.8990363547948754L0.0 7.798072709589751V0.0Z" stroke="#323232" stroke-width="2.0" fill="#323232" transform="matrix(1.0,0.0,0.0,1.0,0.0,0.0)"/></marker><marker id="ProcessOnMarker1053" markerUnits="userSpaceOnUse" orient="auto" markerWidth="16.23606797749979" markerHeight="10.550836550532098" viewBox="-1.0 -1.3763819204711736 16.23606797749979 10.550836550532098" refX="-1.0" refY="3.8990363547948754"><path id="ProcessOnPath1054" d="M12.0 3.8990363547948754L0.0 7.798072709589751V0.0Z" stroke="#323232" stroke-width="2.0" fill="#323232" transform="matrix(1.0,0.0,0.0,1.0,0.0,0.0)"/></marker><marker id="ProcessOnMarker1057" markerUnits="userSpaceOnUse" orient="auto" markerWidth="16.23606797749979" markerHeight="10.550836550532098" viewBox="-1.0 -1.3763819204711736 16.23606797749979 10.550836550532098" refX="-1.0" refY="3.8990363547948754"><path id="ProcessOnPath1058" d="M12.0 3.8990363547948754L0.0 7.798072709589751V0.0Z" stroke="#323232" stroke-width="2.0" fill="#323232" transform="matrix(1.0,0.0,0.0,1.0,0.0,0.0)"/></marker><marker id="ProcessOnMarker1063" markerUnits="userSpaceOnUse" orient="auto" markerWidth="16.23606797749979" markerHeight="10.550836550532098" viewBox="-1.0 -1.3763819204711736 16.23606797749979 10.550836550532098" refX="-1.0" refY="3.8990363547948754"><path id="ProcessOnPath1064" d="M12.0 3.8990363547948754L0.0 7.798072709589751V0.0Z" stroke="#323232" stroke-width="2.0" fill="#323232" transform="matrix(1.0,0.0,0.0,1.0,0.0,0.0)"/></marker><marker id="ProcessOnMarker1067" markerUnits="userSpaceOnUse" orient="auto" markerWidth="16.23606797749979" markerHeight="10.550836550532098" viewBox="-1.0 -1.3763819204711736 16.23606797749979 10.550836550532098" refX="-1.0" refY="3.8990363547948754"><path id="ProcessOnPath1068" d="M12.0 3.8990363547948754L0.0 7.798072709589751V0.0Z" stroke="#323232" stroke-width="2.0" fill="#323232" transform="matrix(1.0,0.0,0.0,1.0,0.0,0.0)"/></marker><marker id="ProcessOnMarker1075" markerUnits="userSpaceOnUse" orient="auto" markerWidth="16.23606797749979" markerHeight="10.550836550532098" viewBox="-1.0 -1.3763819204711736 16.23606797749979 10.550836550532098" refX="-1.0" refY="3.8990363547948754"><path id="ProcessOnPath1076" d="M12.0 3.8990363547948754L0.0 7.798072709589751V0.0Z" stroke="#323232" stroke-width="2.0" fill="#323232" transform="matrix(1.0,0.0,0.0,1.0,0.0,0.0)"/></marker><marker id="ProcessOnMarker1083" markerUnits="userSpaceOnUse" orient="auto" markerWidth="16.23606797749979" markerHeight="10.550836550532098" viewBox="-1.0 -1.3763819204711736 16.23606797749979 10.550836550532098" refX="-1.0" refY="3.8990363547948754"><path id="ProcessOnPath1084" d="M12.0 3.8990363547948754L0.0 7.798072709589751V0.0Z" stroke="#323232" stroke-width="2.0" fill="#323232" transform="matrix(1.0,0.0,0.0,1.0,0.0,0.0)"/></marker><marker id="ProcessOnMarker1091" markerUnits="userSpaceOnUse" orient="auto" markerWidth="16.23606797749979" markerHeight="10.550836550532098" viewBox="-1.0 -1.3763819204711736 16.23606797749979 10.550836550532098" refX="-1.0" refY="3.8990363547948754"><path id="ProcessOnPath1092" d="M12.0 3.8990363547948754L0.0 7.798072709589751V0.0Z" stroke="#323232" stroke-width="2.0" fill="#323232" transform="matrix(1.0,0.0,0.0,1.0,0.0,0.0)"/></marker><marker id="ProcessOnMarker1099" markerUnits="userSpaceOnUse" orient="auto" markerWidth="16.23606797749979" markerHeight="10.550836550532098" viewBox="-1.0 -1.3763819204711736 16.23606797749979 10.550836550532098" refX="-1.0" refY="3.8990363547948754"><path id="ProcessOnPath1100" d="M12.0 3.8990363547948754L0.0 7.798072709589751V0.0Z" stroke="#323232" stroke-width="2.0" fill="#323232" transform="matrix(1.0,0.0,0.0,1.0,0.0,0.0)"/></marker><marker id="ProcessOnMarker1107" markerUnits="userSpaceOnUse" orient="auto" markerWidth="16.23606797749979" markerHeight="10.550836550532098" viewBox="-1.0 -1.3763819204711736 16.23606797749979 10.550836550532098" refX="-1.0" refY="3.8990363547948754"><path id="ProcessOnPath1108" d="M12.0 3.8990363547948754L0.0 7.798072709589751V0.0Z" stroke="#323232" stroke-width="2.0" fill="#323232" transform="matrix(1.0,0.0,0.0,1.0,0.0,0.0)"/></marker><marker id="ProcessOnMarker1111" markerUnits="userSpaceOnUse" orient="auto" markerWidth="16.23606797749979" markerHeight="10.550836550532098" viewBox="-1.0 -1.3763819204711736 16.23606797749979 10.550836550532098" refX="-1.0" refY="3.8990363547948754"><path id="ProcessOnPath1112" d="M12.0 3.8990363547948754L0.0 7.798072709589751V0.0Z" stroke="#323232" stroke-width="2.0" fill="#323232" transform="matrix(1.0,0.0,0.0,1.0,0.0,0.0)"/></marker><marker id="ProcessOnMarker1115" markerUnits="userSpaceOnUse" orient="auto" markerWidth="16.23606797749979" markerHeight="10.550836550532098" viewBox="-1.0 -1.3763819204711736 16.23606797749979 10.550836550532098" refX="-1.0" refY="3.8990363547948754"><path id="ProcessOnPath1116" d="M12.0 3.8990363547948754L0.0 7.798072709589751V0.0Z" stroke="#323232" stroke-width="2.0" fill="#323232" transform="matrix(1.0,0.0,0.0,1.0,0.0,0.0)"/></marker><marker id="ProcessOnMarker1119" markerUnits="userSpaceOnUse" orient="auto" markerWidth="16.23606797749979" markerHeight="10.550836550532098" viewBox="-1.0 -1.3763819204711736 16.23606797749979 10.550836550532098" refX="-1.0" refY="3.8990363547948754"><path id="ProcessOnPath1120" d="M12.0 3.8990363547948754L0.0 7.798072709589751V0.0Z" stroke="#323232" stroke-width="2.0" fill="#323232" transform="matrix(1.0,0.0,0.0,1.0,0.0,0.0)"/></marker><marker id="ProcessOnMarker1127" markerUnits="userSpaceOnUse" orient="auto" markerWidth="16.23606797749979" markerHeight="10.550836550532098" viewBox="-1.0 -1.3763819204711736 16.23606797749979 10.550836550532098" refX="-1.0" refY="3.8990363547948754"><path id="ProcessOnPath1128" d="M12.0 3.8990363547948754L0.0 7.798072709589751V0.0Z" stroke="#323232" stroke-width="2.0" fill="#323232" transform="matrix(1.0,0.0,0.0,1.0,0.0,0.0)"/></marker><marker id="ProcessOnMarker1139" markerUnits="userSpaceOnUse" orient="auto" markerWidth="16.23606797749979" markerHeight="10.550836550532098" viewBox="-1.0 -1.3763819204711736 16.23606797749979 10.550836550532098" refX="-1.0" refY="3.8990363547948754"><path id="ProcessOnPath1140" d="M12.0 3.8990363547948754L0.0 7.798072709589751V0.0Z" stroke="#323232" stroke-width="2.0" fill="#323232" transform="matrix(1.0,0.0,0.0,1.0,0.0,0.0)"/></marker><marker id="ProcessOnMarker1143" markerUnits="userSpaceOnUse" orient="auto" markerWidth="16.23606797749979" markerHeight="10.550836550532098" viewBox="-1.0 -1.3763819204711736 16.23606797749979 10.550836550532098" refX="-1.0" refY="3.8990363547948754"><path id="ProcessOnPath1144" d="M12.0 3.8990363547948754L0.0 7.798072709589751V0.0Z" stroke="#323232" stroke-width="2.0" fill="#323232" transform="matrix(1.0,0.0,0.0,1.0,0.0,0.0)"/></marker><marker id="ProcessOnMarker1147" markerUnits="userSpaceOnUse" orient="auto" markerWidth="16.23606797749979" markerHeight="10.550836550532098" viewBox="-1.0 -1.3763819204711736 16.23606797749979 10.550836550532098" refX="-1.0" refY="3.8990363547948754"><path id="ProcessOnPath1148" d="M12.0 3.8990363547948754L0.0 7.798072709589751V0.0Z" stroke="#323232" stroke-width="2.0" fill="#323232" transform="matrix(1.0,0.0,0.0,1.0,0.0,0.0)"/></marker><marker id="ProcessOnMarker1159" markerUnits="userSpaceOnUse" orient="auto" markerWidth="16.23606797749979" markerHeight="10.550836550532098" viewBox="-1.0 -1.3763819204711736 16.23606797749979 10.550836550532098" refX="-1.0" refY="3.8990363547948754"><path id="ProcessOnPath1160" d="M12.0 3.8990363547948754L0.0 7.798072709589751V0.0Z" stroke="#323232" stroke-width="2.0" fill="#323232" transform="matrix(1.0,0.0,0.0,1.0,0.0,0.0)"/></marker><marker id="ProcessOnMarker1163" markerUnits="userSpaceOnUse" orient="auto" markerWidth="16.23606797749979" markerHeight="10.550836550532098" viewBox="-1.0 -1.3763819204711736 16.23606797749979 10.550836550532098" refX="-1.0" refY="3.8990363547948754"><path id="ProcessOnPath1164" d="M12.0 3.8990363547948754L0.0 7.798072709589751V0.0Z" stroke="#323232" stroke-width="2.0" fill="#323232" transform="matrix(1.0,0.0,0.0,1.0,0.0,0.0)"/></marker><marker id="ProcessOnMarker1167" markerUnits="userSpaceOnUse" orient="auto" markerWidth="16.23606797749979" markerHeight="10.550836550532098" viewBox="-1.0 -1.3763819204711736 16.23606797749979 10.550836550532098" refX="-1.0" refY="3.8990363547948754"><path id="ProcessOnPath1168" d="M12.0 3.8990363547948754L0.0 7.798072709589751V0.0Z" stroke="#323232" stroke-width="2.0" fill="#323232" transform="matrix(1.0,0.0,0.0,1.0,0.0,0.0)"/></marker></defs><g id="ProcessOnG1002"><path id="ProcessOnPath1003" d="M85.75 174.5H705.25V1299.0H85.75V174.5Z" fill="none"/><g id="ProcessOnG1004"><g id="ProcessOnG1005" transform="matrix(1.0,0.0,0.0,1.0,292.0,199.0)" opacity="1.0"><path id="ProcessOnPath1006" d="M0.0 0.0L43.0 0.0L43.0 46.0L0.0 46.0Z" stroke="#323232" stroke-width="2.0" stroke-dasharray="none" opacity="1.0" fill="#ffffff"/><g id="ProcessOnG1007" transform="matrix(1.0,0.0,0.0,1.0,10.0,13.625)"><text id="ProcessOnText1008" fill="#000000" font-weight="normal" font-style="normal" text-decoration="blink" font-family="微软雅黑" text-anchor="middle" font-size="15" x="11.5" y="15.375">W</text></g></g><g id="ProcessOnG1009" transform="matrix(1.0,0.0,0.0,1.0,344.0,280.0)" opacity="1.0"><path id="ProcessOnPath1010" d="M0.0 20.5L8.166666666666666 0.0L40.833333333333336 0.0L49.0 20.5L40.833333333333336 41.0L8.166666666666666 41.0L0.0 20.5Z" stroke="#323232" stroke-width="2.0" stroke-dasharray="none" opacity="1.0" fill="#ffffff"/><g id="ProcessOnG1011" transform="matrix(1.0,0.0,0.0,1.0,10.0,11.125)"><text id="ProcessOnText1012" fill="#000000" font-weight="bold" font-style="normal" text-decoration="blink" font-family="微软雅黑" text-anchor="middle" font-size="15" x="14.5" y="15.375">＊</text></g></g><g id="ProcessOnG1013"><path id="ProcessOnPath1014" d="M313.5 245.0L313.5 300.5L328.7639320225002 300.5" stroke="#323232" stroke-width="2.0" stroke-dasharray="none" fill="none" marker-end="url(#ProcessOnMarker1015)"/></g><g id="ProcessOnG1017"><path id="ProcessOnPath1018" d="M431.0 237.0L431.0 300.5L408.2360679774998 300.5" stroke="#323232" stroke-width="2.0" stroke-dasharray="none" fill="none" marker-end="url(#ProcessOnMarker1019)"/></g><g id="ProcessOnG1021" transform="matrix(1.0,0.0,0.0,1.0,494.0,277.5)" opacity="1.0"><path id="ProcessOnPath1022" d="M0.0 0.0L43.0 0.0L43.0 46.0L0.0 46.0Z" stroke="#323232" stroke-width="2.0" stroke-dasharray="none" opacity="1.0" fill="#ffffff"/><g id="ProcessOnG1023" transform="matrix(1.0,0.0,0.0,1.0,10.0,13.625)"><text id="ProcessOnText1024" fill="#000000" font-weight="normal" font-style="normal" text-decoration="blink" font-family="微软雅黑" text-anchor="middle" font-size="15" x="11.5" y="15.375">b</text></g></g><g id="ProcessOnG1025" transform="matrix(1.0,0.0,0.0,1.0,416.0,409.0)" opacity="1.0"><path id="ProcessOnPath1026" d="M0.0 20.5L8.166666666666666 0.0L40.833333333333336 0.0L49.0 20.5L40.833333333333336 41.0L8.166666666666666 41.0L0.0 20.5Z" stroke="#323232" stroke-width="2.0" stroke-dasharray="none" opacity="1.0" fill="#ffffff"/><g id="ProcessOnG1027" transform="matrix(1.0,0.0,0.0,1.0,10.0,11.125)"><text id="ProcessOnText1028" fill="#000000" font-weight="bold" font-style="normal" text-decoration="blink" font-family="微软雅黑" text-anchor="middle" font-size="15" x="14.5" y="15.375">＋</text></g></g><g id="ProcessOnG1029" transform="matrix(1.0,0.0,0.0,1.0,410.0,570.0)" opacity="1.0"><path id="ProcessOnPath1030" d="M0.0 21.5L10.166666666666666 0.0L50.833333333333336 0.0L61.0 21.5L50.833333333333336 43.0L10.166666666666666 43.0L0.0 21.5Z" stroke="#323232" stroke-width="2.0" stroke-dasharray="none" opacity="1.0" fill="#ffffff"/><g id="ProcessOnG1031" transform="matrix(1.0,0.0,0.0,1.0,10.0,12.125)"><text id="ProcessOnText1032" fill="#000000" font-weight="bold" font-style="normal" text-decoration="blink" font-family="微软雅黑" text-anchor="middle" font-size="15" x="20.5" y="15.375">Tanh</text></g></g><g id="ProcessOnG1033"><path id="ProcessOnPath1034" d="M515.5 323.5L515.5 429.5L480.2360679774998 429.5" stroke="#323232" stroke-width="2.0" stroke-dasharray="none" fill="none" marker-end="url(#ProcessOnMarker1035)"/></g><g id="ProcessOnG1037"><path id="ProcessOnPath1038" d="M440.5 613.0L440.5 630.75L440.5 630.75L440.5 633.2639320225002" stroke="#323232" stroke-width="2.0" stroke-dasharray="none" fill="none" marker-end="url(#ProcessOnMarker1039)"/></g><g id="ProcessOnG1041" transform="matrix(1.0,0.0,0.0,1.0,391.0,194.5)" opacity="1.0"><path id="ProcessOnPath1042" d="M0.0 21.25C0.0 -7.083333333333333 80.0 -7.083333333333333 80.0 21.25C80.0 49.583333333333336 0.0 49.583333333333336 0.0 21.25Z" stroke="#323232" stroke-width="2.0" stroke-dasharray="none" opacity="1.0" fill="#ffffff"/><g id="ProcessOnG1043" transform="matrix(1.0,0.0,0.0,1.0,10.0,11.875)"><text id="ProcessOnText1044" fill="#000000" font-weight="normal" font-style="normal" text-decoration="blink" font-family="微软雅黑" text-anchor="middle" font-size="15" x="30.0" y="15.375">batch_x</text></g></g><g id="ProcessOnG1045" transform="matrix(1.0,0.0,0.0,1.0,415.0,648.5)" opacity="1.0"><path id="ProcessOnPath1046" d="M0.0 24.5C0.0 -8.166666666666666 51.0 -8.166666666666666 51.0 24.5C51.0 57.166666666666664 0.0 57.166666666666664 0.0 24.5Z" stroke="#323232" stroke-width="2.0" stroke-dasharray="none" opacity="1.0" fill="#ffffff"/><g id="ProcessOnG1047" transform="matrix(1.0,0.0,0.0,1.0,10.0,15.125)"><text id="ProcessOnText1048" fill="#000000" font-weight="normal" font-style="normal" text-decoration="blink" font-family="微软雅黑" text-anchor="middle" font-size="15" x="15.5" y="15.375">h(x)</text></g></g><g id="ProcessOnG1049" transform="matrix(1.0,0.0,0.0,1.0,346.0,365.0)" opacity="1.0"><path id="ProcessOnPath1050" d="M0.0 22.0C0.0 -7.333333333333333 45.0 -7.333333333333333 45.0 22.0C45.0 51.333333333333336 0.0 51.333333333333336 0.0 22.0Z" stroke="#323232" stroke-width="2.0" stroke-dasharray="none" opacity="1.0" fill="#ffffff"/></g><g id="ProcessOnG1051"><path id="ProcessOnPath1052" d="M368.5 321.0L368.5 343.0L368.5 343.0L368.5 349.7639320225002" stroke="#323232" stroke-width="2.0" stroke-dasharray="none" fill="none" marker-end="url(#ProcessOnMarker1053)"/></g><g id="ProcessOnG1055"><path id="ProcessOnPath1056" d="M368.5 409.0L368.5 429.5L400.7639320225002 429.5" stroke="#323232" stroke-width="2.0" stroke-dasharray="none" fill="none" marker-end="url(#ProcessOnMarker1057)"/></g><g id="ProcessOnG1059" transform="matrix(1.0,0.0,0.0,1.0,418.0,491.0)" opacity="1.0"><path id="ProcessOnPath1060" d="M0.0 22.0C0.0 -7.333333333333333 45.0 -7.333333333333333 45.0 22.0C45.0 51.333333333333336 0.0 51.333333333333336 0.0 22.0Z" stroke="#323232" stroke-width="2.0" stroke-dasharray="none" opacity="1.0" fill="#ffffff"/></g><g id="ProcessOnG1061"><path id="ProcessOnPath1062" d="M440.5 450.0L440.5 470.5L440.5 470.5L440.5 475.7639320225002" stroke="#323232" stroke-width="2.0" stroke-dasharray="none" fill="none" marker-end="url(#ProcessOnMarker1063)"/></g><g id="ProcessOnG1065"><path id="ProcessOnPath1066" d="M440.5 535.0L440.5 552.5L440.5 552.5L440.5 554.7639320225002" stroke="#323232" stroke-width="2.0" stroke-dasharray="none" fill="none" marker-end="url(#ProcessOnMarker1067)"/></g><g id="ProcessOnG1069" transform="matrix(1.0,0.0,0.0,1.0,340.25,735.0)" opacity="1.0"><path id="ProcessOnPath1070" d="M0.0 21.5L10.166666666666666 0.0L50.833333333333336 0.0L61.0 21.5L50.833333333333336 43.0L10.166666666666666 43.0L0.0 21.5Z" stroke="#323232" stroke-width="2.0" stroke-dasharray="none" opacity="1.0" fill="#ffffff"/><g id="ProcessOnG1071" transform="matrix(1.0,0.0,0.0,1.0,10.0,12.125)"><text id="ProcessOnText1072" fill="#000000" font-weight="bold" font-style="normal" text-decoration="blink" font-family="微软雅黑" text-anchor="middle" font-size="15" x="20.5" y="15.375">MSE</text></g></g><g id="ProcessOnG1073"><path id="ProcessOnPath1074" d="M440.5 697.5L440.5 756.5L416.4860679774998 756.5" stroke="#323232" stroke-width="2.0" stroke-dasharray="none" fill="none" marker-end="url(#ProcessOnMarker1075)"/></g><g id="ProcessOnG1077" transform="matrix(1.0,0.0,0.0,1.0,267.0,650.75)" opacity="1.0"><path id="ProcessOnPath1078" d="M0.0 22.25C0.0 -7.416666666666667 79.0 -7.416666666666667 79.0 22.25C79.0 51.916666666666664 0.0 51.916666666666664 0.0 22.25Z" stroke="#323232" stroke-width="2.0" stroke-dasharray="none" opacity="1.0" fill="#ffffff"/><g id="ProcessOnG1079" transform="matrix(1.0,0.0,0.0,1.0,10.0,12.875)"><text id="ProcessOnText1080" fill="#000000" font-weight="normal" font-style="normal" text-decoration="blink" font-family="微软雅黑" text-anchor="middle" font-size="15" x="29.5" y="15.375">batch_y</text></g></g><g id="ProcessOnG1081"><path id="ProcessOnPath1082" d="M306.5 695.25L306.5 756.5L325.0139320225002 756.5" stroke="#323232" stroke-width="2.0" stroke-dasharray="none" fill="none" marker-end="url(#ProcessOnMarker1083)"/></g><g id="ProcessOnG1085" transform="matrix(1.0,0.0,0.0,1.0,346.0,830.75)" opacity="1.0"><path id="ProcessOnPath1086" d="M0.0 23.125C0.0 -7.708333333333333 49.5 -7.708333333333333 49.5 23.125C49.5 53.958333333333336 0.0 53.958333333333336 0.0 23.125Z" stroke="#323232" stroke-width="2.0" stroke-dasharray="none" opacity="1.0" fill="#ffffff"/><g id="ProcessOnG1087" transform="matrix(1.0,0.0,0.0,1.0,10.0,13.75)"><text id="ProcessOnText1088" fill="#000000" font-weight="normal" font-style="normal" text-decoration="blink" font-family="微软雅黑" text-anchor="middle" font-size="15" x="14.75" y="15.375">loss</text></g></g><g id="ProcessOnG1089"><path id="ProcessOnPath1090" d="M370.75 778.0L370.75 804.375L370.75 804.375L370.75 815.5139320225002" stroke="#323232" stroke-width="2.0" stroke-dasharray="none" fill="none" marker-end="url(#ProcessOnMarker1091)"/></g><g id="ProcessOnG1093" transform="matrix(1.0,0.0,0.0,1.0,264.25,920.0)" opacity="1.0"><path id="ProcessOnPath1094" d="M0.0 23.0L13.166666666666666 0.0L65.83333333333333 0.0L79.0 23.0L65.83333333333333 46.0L13.166666666666666 46.0L0.0 23.0Z" stroke="#323232" stroke-width="2.0" stroke-dasharray="none" opacity="1.0" fill="#ffffff"/><g id="ProcessOnG1095" transform="matrix(1.0,0.0,0.0,1.0,10.0,13.625)"><text id="ProcessOnText1096" fill="#000000" font-weight="bold" font-style="normal" text-decoration="blink" font-family="微软雅黑" text-anchor="middle" font-size="15" x="29.5" y="15.375">grad_W</text></g></g><g id="ProcessOnG1097"><path id="ProcessOnPath1098" d="M370.75 877.0L370.75 898.5L303.75 898.5L303.75 904.7639320225002" stroke="#323232" stroke-width="2.0" stroke-dasharray="none" fill="none" marker-end="url(#ProcessOnMarker1099)"/></g><g id="ProcessOnG1101" transform="matrix(1.0,0.0,0.0,1.0,441.0,920.0)" opacity="1.0"><path id="ProcessOnPath1102" d="M0.0 23.0L13.166666666666666 0.0L65.83333333333333 0.0L79.0 23.0L65.83333333333333 46.0L13.166666666666666 46.0L0.0 23.0Z" stroke="#323232" stroke-width="2.0" stroke-dasharray="none" opacity="1.0" fill="#ffffff"/><g id="ProcessOnG1103" transform="matrix(1.0,0.0,0.0,1.0,10.0,13.625)"><text id="ProcessOnText1104" fill="#000000" font-weight="bold" font-style="normal" text-decoration="blink" font-family="微软雅黑" text-anchor="middle" font-size="15" x="29.5" y="15.375">grad_b</text></g></g><g id="ProcessOnG1105"><path id="ProcessOnPath1106" d="M370.75 877.0L370.75 898.5L480.5 898.5L480.5 904.7639320225002" stroke="#323232" stroke-width="2.0" stroke-dasharray="none" fill="none" marker-end="url(#ProcessOnMarker1107)"/></g><g id="ProcessOnG1109"><path id="ProcessOnPath1110" d="M208.75 1255.875L105.75 1255.875L105.75 222.0L276.7639320225002 222.0" stroke="#323232" stroke-width="2.0" stroke-dasharray="10.0 4.0" fill="none" marker-end="url(#ProcessOnMarker1111)"/></g><g id="ProcessOnG1113"><path id="ProcessOnPath1114" d="M585.25 1255.875L685.25 1255.875L685.25 300.5L552.2360679774998 300.5" stroke="#323232" stroke-width="2.0" stroke-dasharray="10.0 4.0" fill="none" marker-end="url(#ProcessOnMarker1115)"/></g><g id="ProcessOnG1117"><path id="ProcessOnPath1118" d="M303.75 966.0L303.75 989.375L303.75 989.375L303.75 997.5139320225002" stroke="#323232" stroke-width="2.0" stroke-dasharray="none" fill="none" marker-end="url(#ProcessOnMarker1119)"/></g><g id="ProcessOnG1121" transform="matrix(1.0,0.0,0.0,1.0,279.0,1012.75)" opacity="1.0"><path id="ProcessOnPath1122" d="M0.0 23.125C0.0 -7.708333333333333 49.5 -7.708333333333333 49.5 23.125C49.5 53.958333333333336 0.0 53.958333333333336 0.0 23.125Z" stroke="#323232" stroke-width="2.0" stroke-dasharray="none" opacity="1.0" fill="#ffffff"/></g><g id="ProcessOnG1123" transform="matrix(1.0,0.0,0.0,1.0,455.75,1012.75)" opacity="1.0"><path id="ProcessOnPath1124" d="M0.0 23.125C0.0 -7.708333333333333 49.5 -7.708333333333333 49.5 23.125C49.5 53.958333333333336 0.0 53.958333333333336 0.0 23.125Z" stroke="#323232" stroke-width="2.0" stroke-dasharray="none" opacity="1.0" fill="#ffffff"/></g><g id="ProcessOnG1125"><path id="ProcessOnPath1126" d="M480.5 966.0L480.5 989.375L480.5 989.375L480.5 997.5139320225002" stroke="#323232" stroke-width="2.0" stroke-dasharray="none" fill="none" marker-end="url(#ProcessOnMarker1127)"/></g><g id="ProcessOnG1129" transform="matrix(1.0,0.0,0.0,1.0,188.0,1101.0)" opacity="1.0"><path id="ProcessOnPath1130" d="M0.0 23.0L15.166666666666666 0.0L75.83333333333333 0.0L91.0 23.0L75.83333333333333 46.0L15.166666666666666 46.0L0.0 23.0Z" stroke="#323232" stroke-width="2.0" stroke-dasharray="none" opacity="1.0" fill="#ffffff"/><g id="ProcessOnG1131" transform="matrix(1.0,0.0,0.0,1.0,10.0,13.625)"><text id="ProcessOnText1132" fill="#000000" font-weight="bold" font-style="normal" text-decoration="blink" font-family="微软雅黑" text-anchor="middle" font-size="15" x="35.5" y="15.375">updater</text></g></g><g id="ProcessOnG1133" transform="matrix(1.0,0.0,0.0,1.0,515.0,1086.0)" opacity="1.0"><path id="ProcessOnPath1134" d="M0.0 23.5L15.166666666666666 0.0L75.83333333333333 0.0L91.0 23.5L75.83333333333333 47.0L15.166666666666666 47.0L0.0 23.5Z" stroke="#323232" stroke-width="2.0" stroke-dasharray="none" opacity="1.0" fill="#ffffff"/><g id="ProcessOnG1135" transform="matrix(1.0,0.0,0.0,1.0,10.0,14.125)"><text id="ProcessOnText1136" fill="#000000" font-weight="bold" font-style="normal" text-decoration="blink" font-family="微软雅黑" text-anchor="middle" font-size="15" x="35.5" y="15.375">updater</text></g></g><g id="ProcessOnG1137"><path id="ProcessOnPath1138" d="M480.5 1059.0L480.5 1109.5L499.7639320225002 1109.5" stroke="#323232" stroke-width="2.0" stroke-dasharray="none" fill="none" marker-end="url(#ProcessOnMarker1139)"/></g><g id="ProcessOnG1141"><path id="ProcessOnPath1142" d="M303.75 1059.0L303.75 1124.0L294.2360679774998 1124.0" stroke="#323232" stroke-width="2.0" stroke-dasharray="none" fill="none" marker-end="url(#ProcessOnMarker1143)"/></g><g id="ProcessOnG1145"><path id="ProcessOnPath1146" d="M233.5 1147.0L233.5 1189.875L233.5 1189.875L233.5 1217.5139320225003" stroke="#323232" stroke-width="2.0" stroke-dasharray="none" fill="none" marker-end="url(#ProcessOnMarker1147)"/></g><g id="ProcessOnG1149" transform="matrix(1.0,0.0,0.0,1.0,208.75,1232.75)" opacity="1.0"><path id="ProcessOnPath1150" d="M0.0 23.125C0.0 -7.708333333333333 49.5 -7.708333333333333 49.5 23.125C49.5 53.958333333333336 0.0 53.958333333333336 0.0 23.125Z" stroke="#323232" stroke-width="2.0" stroke-dasharray="none" opacity="1.0" fill="#ffffff"/><g id="ProcessOnG1151" transform="matrix(1.0,0.0,0.0,1.0,10.0,13.75)"><text id="ProcessOnText1152" fill="#000000" font-weight="normal" font-style="normal" text-decoration="blink" font-family="微软雅黑" text-anchor="middle" font-size="15" x="14.75" y="15.375">W'</text></g></g><g id="ProcessOnG1153" transform="matrix(1.0,0.0,0.0,1.0,535.75,1232.75)" opacity="1.0"><path id="ProcessOnPath1154" d="M0.0 23.125C0.0 -7.708333333333333 49.5 -7.708333333333333 49.5 23.125C49.5 53.958333333333336 0.0 53.958333333333336 0.0 23.125Z" stroke="#323232" stroke-width="2.0" stroke-dasharray="none" opacity="1.0" fill="#ffffff"/><g id="ProcessOnG1155" transform="matrix(1.0,0.0,0.0,1.0,10.0,13.75)"><text id="ProcessOnText1156" fill="#000000" font-weight="normal" font-style="normal" text-decoration="blink" font-family="微软雅黑" text-anchor="middle" font-size="15" x="14.75" y="15.375">b'</text></g></g><g id="ProcessOnG1157"><path id="ProcessOnPath1158" d="M560.5 1133.0L560.5 1182.875L560.5 1182.875L560.5 1217.5139320225003" stroke="#323232" stroke-width="2.0" stroke-dasharray="none" fill="none" marker-end="url(#ProcessOnMarker1159)"/></g><g id="ProcessOnG1161"><path id="ProcessOnPath1162" d="M515.5 323.5L515.5 353.5L636.0 353.5L636.0 1109.5L621.2360679774998 1109.5" stroke="#323232" stroke-width="2.0" stroke-dasharray="none" fill="none" marker-end="url(#ProcessOnMarker1163)"/></g><g id="ProcessOnG1165"><path id="ProcessOnPath1166" d="M313.5 245.0L313.5 275.0L158.0 275.0L158.0 1124.0L172.7639320225002 1124.0" stroke="#323232" stroke-width="2.0" stroke-dasharray="none" fill="none" marker-end="url(#ProcessOnMarker1167)"/></g></g></g></svg>